<svg xmlns="http://www.w3.org/2000/svg" xmlns:xlink="http://www.w3.org/1999/xlink" width="500" zoomAndPan="magnify" viewBox="0 0 375 374.999991" height="500" preserveAspectRatio="xMidYMid meet" version="1.0"><defs><g/><clipPath id="8e6e509f98"><path d="M 228.914062 139.609375 L 337.5 139.609375 L 337.5 248.195312 L 228.914062 248.195312 Z M 228.914062 139.609375 " clip-rule="nonzero"/></clipPath><clipPath id="8304cd0272"><path d="M 240.164062 139.609375 L 326.25 139.609375 C 332.464844 139.609375 337.5 144.644531 337.5 150.859375 L 337.5 236.945312 C 337.5 243.160156 332.464844 248.195312 326.25 248.195312 L 240.164062 248.195312 C 233.949219 248.195312 228.914062 243.160156 228.914062 236.945312 L 228.914062 150.859375 C 228.914062 144.644531 233.949219 139.609375 240.164062 139.609375 " clip-rule="nonzero"/></clipPath></defs><g fill="#aee5d0" fill-opacity="1"><g transform="translate(60.092195, 243.964988)"><g><path d="M 36.339844 0.0546875 C 38.539062 0.0273438 39.65625 -1.085938 39.65625 -3.230469 L 39.65625 -24.878906 C 39.65625 -27.078125 38.59375 -28.191406 36.449219 -28.191406 C 34.25 -28.191406 33.136719 -27.078125 33.136719 -24.878906 L 33.136719 -6.519531 L 27.757812 -6.519531 C 25.558594 -6.519531 24.445312 -7.632812 24.445312 -9.859375 L 24.445312 -24.933594 C 24.445312 -27.132812 23.359375 -28.246094 21.183594 -28.246094 C 19.011719 -28.246094 17.925781 -27.160156 17.925781 -24.988281 L 17.980469 -6.519531 L 12.546875 -6.519531 C 10.347656 -6.519531 9.234375 -7.632812 9.234375 -9.859375 L 9.234375 -24.933594 C 9.234375 -27.132812 8.148438 -28.246094 5.976562 -28.246094 C 3.800781 -28.246094 2.714844 -27.160156 2.714844 -24.988281 L 2.714844 -9.996094 C 2.714844 -3.339844 5.976562 0 12.492188 0 Z M 36.339844 0.0546875 "/></g></g></g><g fill="#425c81" fill-opacity="1"><g transform="translate(106.631898, 243.964988)"><g><path d="M 26.5625 -3.257812 L 26.5625 -24.960938 C 26.5625 -27.105469 25.476562 -28.164062 23.304688 -28.164062 L 12.492188 -28.191406 C 5.976562 -28.191406 2.714844 -24.851562 2.714844 -18.199219 L 2.714844 -3.203125 C 2.714844 -1.03125 3.800781 0.0546875 5.976562 0.0546875 C 8.148438 0.0546875 9.234375 -1.058594 9.234375 -3.257812 L 9.261719 -8.691406 L 20.042969 -8.664062 L 20.042969 -3.257812 C 20.042969 -1.058594 21.15625 0.0546875 23.386719 0.0546875 C 25.503906 0.0546875 26.5625 -1.058594 26.5625 -3.257812 Z M 9.234375 -15.210938 L 9.234375 -18.332031 C 9.234375 -20.5625 10.347656 -21.675781 12.546875 -21.675781 L 20.042969 -21.675781 L 20.042969 -15.210938 Z M 9.234375 -15.210938 "/></g></g></g><g fill="#425c81" fill-opacity="1"><g transform="translate(140.191545, 243.964988)"><g><path d="M 24.445312 -24.960938 C 24.445312 -27.105469 23.359375 -28.191406 21.183594 -28.191406 L 12.492188 -28.191406 C 5.976562 -28.191406 2.742188 -25.339844 2.769531 -19.609375 C 2.769531 -13.742188 6.058594 -10.808594 12.601562 -10.835938 L 14.722656 -10.835938 C 16.867188 -10.808594 17.925781 -10.078125 17.925781 -8.636719 C 17.898438 -7.171875 16.785156 -6.4375 14.640625 -6.4375 L 5.867188 -6.4375 C 3.773438 -6.410156 2.742188 -5.269531 2.714844 -3.015625 C 2.742188 -1.003906 3.800781 0 5.894531 -0.0273438 L 14.695312 0 C 21.132812 -0.0273438 24.363281 -2.90625 24.390625 -8.691406 C 24.417969 -14.367188 21.183594 -17.273438 14.695312 -17.382812 L 12.574219 -17.382812 C 10.347656 -17.382812 9.234375 -18.089844 9.234375 -19.472656 C 9.234375 -20.941406 10.347656 -21.675781 12.546875 -21.675781 L 21.265625 -21.675781 C 23.359375 -21.726562 24.417969 -22.816406 24.445312 -24.960938 Z M 24.445312 -24.960938 "/></g></g></g><g fill="#425c81" fill-opacity="1"><g transform="translate(171.551182, 243.964988)"><g><path d="M 12.546875 -3.3125 L 12.546875 -24.960938 C 12.546875 -27.105469 11.460938 -28.21875 9.289062 -28.246094 L 6.03125 -28.191406 C 3.855469 -28.164062 2.769531 -27.023438 2.769531 -24.824219 C 2.742188 -22.734375 3.828125 -21.675781 6.03125 -21.675781 L 6.03125 -3.3125 C 6.03125 -1.113281 7.117188 0 9.316406 0 C 11.460938 0 12.546875 -1.113281 12.546875 -3.3125 Z M 9.097656 -36.910156 C 7.441406 -37.019531 5.785156 -35.417969 5.867188 -33.679688 C 5.8125 -32.023438 7.414062 -30.394531 9.097656 -30.472656 C 10.78125 -30.394531 12.386719 -32.023438 12.332031 -33.679688 C 12.414062 -35.417969 10.753906 -37.019531 9.097656 -36.910156 Z M 9.097656 -36.910156 "/></g></g></g><g fill="#425c81" fill-opacity="1"><g transform="translate(191.01447, 243.964988)"><g><path d="M 2.714844 -33.679688 L 2.714844 -3.285156 C 2.714844 -1.140625 3.800781 -0.0273438 5.976562 0 L 9.234375 -0.0546875 C 11.40625 -0.0820312 12.492188 -1.195312 12.492188 -3.394531 C 12.519531 -5.511719 11.433594 -6.574219 9.234375 -6.574219 L 9.234375 -33.679688 C 9.234375 -35.878906 8.121094 -36.992188 5.921875 -36.992188 C 3.773438 -36.992188 2.714844 -35.878906 2.714844 -33.679688 Z M 2.714844 -33.679688 "/></g></g></g><g fill="#425c81" fill-opacity="1"><g transform="translate(68.199637, 177.736556)"><g><path d="M 31.585938 -6.410156 L 31.585938 -32.808594 C 31.585938 -34.929688 30.554688 -35.988281 28.464844 -35.988281 C 26.320312 -35.988281 25.230469 -34.929688 25.230469 -32.835938 L 25.203125 -1.058594 C 25.203125 1.113281 24.117188 2.199219 21.945312 2.199219 L 11.136719 2.199219 C 8.882812 2.199219 7.769531 1.167969 7.769531 -0.894531 L 7.769531 -11.625 C 7.742188 -13.796875 6.679688 -14.882812 4.589844 -14.910156 C 2.445312 -14.910156 1.386719 -13.796875 1.414062 -11.542969 L 1.414062 -0.976562 C 1.414062 5.433594 4.644531 8.636719 11.109375 8.636719 L 21.78125 8.636719 C 27.976562 8.636719 31.234375 5.757812 31.585938 0 L 38.40625 0 C 39.464844 0 40.007812 -1.058594 40.035156 -3.179688 C 40.035156 -5.324219 39.519531 -6.410156 38.488281 -6.410156 Z M 31.585938 -6.410156 "/></g></g></g><g fill="#425c81" fill-opacity="1"><g transform="translate(109.146969, 177.736556)"><g><path d="M 12.140625 -27.785156 C 10.972656 -27.785156 10.132812 -27.433594 9.613281 -26.726562 L 9.613281 -27.351562 C 9.613281 -29.496094 8.554688 -30.554688 6.4375 -30.554688 C 4.292969 -30.554688 3.230469 -29.496094 3.230469 -27.378906 L 3.230469 -6.410156 L -1.65625 -6.410156 C -2.714844 -6.410156 -3.257812 -5.351562 -3.257812 -3.230469 C -3.230469 -1.085938 -2.6875 0 -1.628906 0 L 36.640625 0 C 38.757812 0 39.816406 -1.085938 39.816406 -3.230469 L 39.816406 -17.980469 C 39.816406 -24.527344 36.613281 -27.785156 30.203125 -27.785156 Z M 30.148438 -21.402344 C 32.320312 -21.402344 33.40625 -20.289062 33.40625 -18.089844 L 33.40625 -6.410156 L 9.613281 -6.410156 L 9.613281 -21.402344 Z M 30.148438 -21.402344 "/></g></g></g><g fill="#425c81" fill-opacity="1"><g transform="translate(154.49432, 177.736556)"><g><path d="M 3.53125 -36.015625 C 1.386719 -35.960938 0.324219 -34.847656 0.324219 -32.675781 C 0.296875 -30.609375 1.359375 -29.578125 3.53125 -29.578125 L 3.53125 -3.257812 C 3.53125 -1.085938 4.617188 0 6.789062 0 C 8.882812 0 9.941406 -1.085938 9.941406 -3.257812 L 9.941406 -32.835938 C 9.941406 -34.929688 8.882812 -36.015625 6.761719 -36.070312 Z M 3.53125 -36.015625 "/></g></g></g><g fill="#aee5d0" fill-opacity="1"><g transform="translate(171.939581, 177.736556)"><g><path d="M 18.523438 -6.410156 L 10.945312 -6.464844 C 8.855469 -6.464844 7.796875 -7.550781 7.796875 -9.722656 L 7.796875 -18.144531 C 7.796875 -20.289062 8.855469 -21.375 10.945312 -21.375 L 15.265625 -21.375 C 17.4375 -21.375 18.523438 -20.34375 18.523438 -18.277344 Z M 11.027344 -27.8125 C 4.589844 -27.8125 1.359375 -24.582031 1.359375 -18.144531 L 1.359375 -9.640625 C 1.359375 -3.230469 4.5625 -0.0273438 10.945312 -0.0273438 L 18.386719 -0.0273438 C 18.0625 1.441406 17.03125 2.171875 15.265625 2.171875 L 12.847656 2.171875 C 10.703125 2.171875 9.640625 3.230469 9.640625 5.351562 L 9.640625 5.40625 C 9.640625 7.523438 10.703125 8.582031 12.847656 8.582031 L 15.292969 8.582031 C 21.703125 8.582031 24.90625 5.296875 24.90625 -1.25 L 24.90625 -18.144531 C 24.90625 -24.582031 21.703125 -27.8125 15.265625 -27.8125 Z M 11.027344 -27.8125 "/></g></g></g><g clip-path="url(#8e6e509f98)"><g clip-path="url(#8304cd0272)"><path fill="#aee5d0" d="M 228.914062 139.609375 L 337.5 139.609375 L 337.5 248.195312 L 228.914062 248.195312 Z M 228.914062 139.609375 " fill-opacity="1" fill-rule="nonzero"/></g></g><g fill="#425c81" fill-opacity="1"><g transform="translate(256.94695, 215.863262)"><g><path d="M 37.042969 -12.820312 L 21.890625 -12.925781 C 17.707031 -12.925781 15.589844 -15.101562 15.589844 -19.445312 L 15.589844 -36.285156 C 15.589844 -40.574219 17.707031 -42.746094 21.890625 -42.746094 L 30.527344 -42.746094 C 34.871094 -42.746094 37.042969 -40.683594 37.042969 -36.554688 Z M 22.050781 -55.621094 C 9.179688 -55.621094 2.714844 -49.15625 2.714844 -36.285156 L 2.714844 -19.28125 C 2.714844 -6.464844 9.125 -0.0546875 21.890625 -0.0546875 L 36.773438 -0.0546875 C 36.121094 2.878906 34.058594 4.34375 30.527344 4.34375 L 25.691406 4.34375 C 21.402344 4.34375 19.28125 6.464844 19.28125 10.699219 L 19.28125 10.808594 C 19.28125 15.046875 21.402344 17.164062 25.691406 17.164062 L 30.582031 17.164062 C 43.398438 17.164062 49.808594 10.59375 49.808594 -2.5 L 49.808594 -36.285156 C 49.808594 -49.15625 43.398438 -55.621094 30.527344 -55.621094 Z M 22.050781 -55.621094 "/></g></g></g></svg>