<svg xmlns="http://www.w3.org/2000/svg" xmlns:xlink="http://www.w3.org/1999/xlink" width="500" zoomAndPan="magnify" viewBox="0 0 375 374.999991" height="500" preserveAspectRatio="xMidYMid meet" version="1.0"><defs><g/><clipPath id="1d282a1e93"><path d="M 126.21875 65.425781 L 248.78125 65.425781 L 248.78125 187.992188 L 126.21875 187.992188 Z M 126.21875 65.425781 " clip-rule="nonzero"/></clipPath><clipPath id="21c8e1c0ae"><path d="M 137.46875 65.425781 L 237.53125 65.425781 C 243.746094 65.425781 248.78125 70.460938 248.78125 76.675781 L 248.78125 176.742188 C 248.78125 182.953125 243.746094 187.992188 237.53125 187.992188 L 137.46875 187.992188 C 131.253906 187.992188 126.21875 182.953125 126.21875 176.742188 L 126.21875 76.675781 C 126.21875 70.460938 131.253906 65.425781 137.46875 65.425781 " clip-rule="nonzero"/></clipPath></defs><g fill="#aee5d0" fill-opacity="1"><g transform="translate(104.972448, 319.252831)"><g><path d="M 41.019531 0.0625 C 43.503906 0.03125 44.757812 -1.226562 44.757812 -3.648438 L 44.757812 -28.082031 C 44.757812 -30.566406 43.5625 -31.820312 41.140625 -31.820312 C 38.660156 -31.820312 37.402344 -30.566406 37.402344 -28.082031 L 37.402344 -7.359375 L 31.332031 -7.359375 C 28.847656 -7.359375 27.589844 -8.613281 27.589844 -11.128906 L 27.589844 -28.144531 C 27.589844 -30.625 26.363281 -31.882812 23.914062 -31.882812 C 21.460938 -31.882812 20.234375 -30.65625 20.234375 -28.203125 L 20.296875 -7.359375 L 14.164062 -7.359375 C 11.679688 -7.359375 10.421875 -8.613281 10.421875 -11.128906 L 10.421875 -28.144531 C 10.421875 -30.625 9.195312 -31.882812 6.746094 -31.882812 C 4.292969 -31.882812 3.066406 -30.65625 3.066406 -28.203125 L 3.066406 -11.28125 C 3.066406 -3.769531 6.746094 0 14.101562 0 Z M 41.019531 0.0625 "/></g></g></g><g fill="#425c81" fill-opacity="1"><g transform="translate(157.503615, 319.252831)"><g><path d="M 29.984375 -3.679688 L 29.984375 -28.175781 C 29.984375 -30.597656 28.757812 -31.792969 26.304688 -31.792969 L 14.101562 -31.820312 C 6.746094 -31.820312 3.066406 -28.050781 3.066406 -20.539062 L 3.066406 -3.617188 C 3.066406 -1.164062 4.292969 0.0625 6.746094 0.0625 C 9.195312 0.0625 10.421875 -1.195312 10.421875 -3.679688 L 10.453125 -9.808594 L 22.625 -9.78125 L 22.625 -3.679688 C 22.625 -1.195312 23.882812 0.0625 26.394531 0.0625 C 28.789062 0.0625 29.984375 -1.195312 29.984375 -3.679688 Z M 10.421875 -17.167969 L 10.421875 -20.695312 C 10.421875 -23.207031 11.679688 -24.464844 14.164062 -24.464844 L 22.625 -24.464844 L 22.625 -17.167969 Z M 10.421875 -17.167969 "/></g></g></g><g fill="#425c81" fill-opacity="1"><g transform="translate(195.38369, 319.252831)"><g><path d="M 27.589844 -28.175781 C 27.589844 -30.597656 26.363281 -31.820312 23.914062 -31.820312 L 14.101562 -31.820312 C 6.746094 -31.820312 3.097656 -28.601562 3.128906 -22.132812 C 3.128906 -15.511719 6.835938 -12.203125 14.226562 -12.230469 L 16.617188 -12.230469 C 19.039062 -12.203125 20.234375 -11.375 20.234375 -9.75 C 20.203125 -8.09375 18.945312 -7.265625 16.523438 -7.265625 L 6.621094 -7.265625 C 4.261719 -7.234375 3.097656 -5.949219 3.066406 -3.402344 C 3.097656 -1.132812 4.292969 0 6.652344 -0.03125 L 16.585938 0 C 23.851562 -0.03125 27.5 -3.28125 27.53125 -9.808594 C 27.5625 -16.21875 23.914062 -19.496094 16.585938 -19.621094 L 14.195312 -19.621094 C 11.679688 -19.621094 10.421875 -20.417969 10.421875 -21.980469 C 10.421875 -23.636719 11.679688 -24.464844 14.164062 -24.464844 L 24.003906 -24.464844 C 26.363281 -24.527344 27.5625 -25.753906 27.589844 -28.175781 Z M 27.589844 -28.175781 "/></g></g></g><g fill="#425c81" fill-opacity="1"><g transform="translate(230.780529, 319.252831)"><g><path d="M 14.164062 -3.738281 L 14.164062 -28.175781 C 14.164062 -30.597656 12.9375 -31.851562 10.484375 -31.882812 L 6.804688 -31.820312 C 4.351562 -31.792969 3.128906 -30.503906 3.128906 -28.019531 C 3.097656 -25.660156 4.324219 -24.464844 6.804688 -24.464844 L 6.804688 -3.738281 C 6.804688 -1.257812 8.03125 0 10.515625 0 C 12.9375 0 14.164062 -1.257812 14.164062 -3.738281 Z M 10.269531 -41.664062 C 8.398438 -41.785156 6.53125 -39.976562 6.621094 -38.015625 C 6.5625 -36.144531 8.371094 -34.304688 10.269531 -34.398438 C 12.171875 -34.304688 13.980469 -36.144531 13.917969 -38.015625 C 14.011719 -39.976562 12.140625 -41.785156 10.269531 -41.664062 Z M 10.269531 -41.664062 "/></g></g></g><g fill="#425c81" fill-opacity="1"><g transform="translate(252.749496, 319.252831)"><g><path d="M 3.066406 -38.015625 L 3.066406 -3.710938 C 3.066406 -1.289062 4.292969 -0.03125 6.746094 0 L 10.421875 -0.0625 C 12.875 -0.09375 14.101562 -1.347656 14.101562 -3.832031 C 14.132812 -6.222656 12.90625 -7.417969 10.421875 -7.417969 L 10.421875 -38.015625 C 10.421875 -40.5 9.167969 -41.753906 6.683594 -41.753906 C 4.261719 -41.753906 3.066406 -40.5 3.066406 -38.015625 Z M 3.066406 -38.015625 "/></g></g></g><g fill="#425c81" fill-opacity="1"><g transform="translate(114.123631, 244.498226)"><g><path d="M 35.65625 -7.234375 L 35.65625 -37.035156 C 35.65625 -39.425781 34.488281 -40.621094 32.128906 -40.621094 C 29.707031 -40.621094 28.480469 -39.425781 28.480469 -37.066406 L 28.449219 -1.195312 C 28.449219 1.257812 27.222656 2.484375 24.769531 2.484375 L 12.570312 2.484375 C 10.023438 2.484375 8.769531 1.316406 8.769531 -1.011719 L 8.769531 -13.121094 C 8.738281 -15.574219 7.542969 -16.800781 5.179688 -16.832031 C 2.757812 -16.832031 1.5625 -15.574219 1.59375 -13.03125 L 1.59375 -1.105469 C 1.59375 6.132812 5.242188 9.75 12.539062 9.75 L 24.585938 9.75 C 31.578125 9.75 35.253906 6.5 35.65625 0 L 43.347656 0 C 44.546875 0 45.15625 -1.195312 45.1875 -3.585938 C 45.1875 -6.007812 44.605469 -7.234375 43.441406 -7.234375 Z M 35.65625 -7.234375 "/></g></g></g><g fill="#425c81" fill-opacity="1"><g transform="translate(160.342473, 244.498226)"><g><path d="M 13.703125 -31.363281 C 12.386719 -31.363281 11.433594 -30.964844 10.851562 -30.167969 L 10.851562 -30.871094 C 10.851562 -33.292969 9.65625 -34.488281 7.265625 -34.488281 C 4.84375 -34.488281 3.648438 -33.292969 3.648438 -30.902344 L 3.648438 -7.234375 L -1.871094 -7.234375 C -3.066406 -7.234375 -3.679688 -6.039062 -3.679688 -3.648438 C -3.648438 -1.226562 -3.035156 0 -1.839844 0 L 41.355469 0 C 43.746094 0 44.945312 -1.226562 44.945312 -3.648438 L 44.945312 -20.296875 C 44.945312 -27.683594 41.324219 -31.363281 34.089844 -31.363281 Z M 34.03125 -24.15625 C 36.480469 -24.15625 37.707031 -22.902344 37.707031 -20.417969 L 37.707031 -7.234375 L 10.851562 -7.234375 L 10.851562 -24.15625 Z M 34.03125 -24.15625 "/></g></g></g><g fill="#425c81" fill-opacity="1"><g transform="translate(211.527787, 244.498226)"><g><path d="M 3.984375 -40.652344 C 1.5625 -40.589844 0.367188 -39.332031 0.367188 -36.878906 C 0.335938 -34.550781 1.53125 -33.386719 3.984375 -33.386719 L 3.984375 -3.679688 C 3.984375 -1.226562 5.210938 0 7.664062 0 C 10.023438 0 11.21875 -1.226562 11.21875 -3.679688 L 11.21875 -37.066406 C 11.21875 -39.425781 10.023438 -40.652344 7.632812 -40.710938 Z M 3.984375 -40.652344 "/></g></g></g><g fill="#aee5d0" fill-opacity="1"><g transform="translate(231.218929, 244.498226)"><g><path d="M 20.910156 -7.234375 L 12.355469 -7.296875 C 9.996094 -7.296875 8.796875 -8.523438 8.796875 -10.976562 L 8.796875 -20.480469 C 8.796875 -22.902344 9.996094 -24.128906 12.355469 -24.128906 L 17.230469 -24.128906 C 19.683594 -24.128906 20.910156 -22.960938 20.910156 -20.632812 Z M 12.445312 -31.394531 C 5.179688 -31.394531 1.53125 -27.746094 1.53125 -20.480469 L 1.53125 -10.882812 C 1.53125 -3.648438 5.152344 -0.03125 12.355469 -0.03125 L 20.753906 -0.03125 C 20.386719 1.625 19.222656 2.453125 17.230469 2.453125 L 14.5 2.453125 C 12.078125 2.453125 10.882812 3.648438 10.882812 6.039062 L 10.882812 6.101562 C 10.882812 8.492188 12.078125 9.6875 14.5 9.6875 L 17.261719 9.6875 C 24.496094 9.6875 28.113281 5.976562 28.113281 -1.410156 L 28.113281 -20.480469 C 28.113281 -27.746094 24.496094 -31.394531 17.230469 -31.394531 Z M 12.445312 -31.394531 "/></g></g></g><g clip-path="url(#1d282a1e93)"><g clip-path="url(#21c8e1c0ae)"><path fill="#aee5d0" d="M 126.21875 65.425781 L 248.78125 65.425781 L 248.78125 187.992188 L 126.21875 187.992188 Z M 126.21875 65.425781 " fill-opacity="1" fill-rule="nonzero"/></g></g><g fill="#425c81" fill-opacity="1"><g transform="translate(157.85922, 151.496148)"><g><path d="M 41.8125 -14.46875 L 24.707031 -14.589844 C 19.988281 -14.589844 17.597656 -17.042969 17.597656 -21.949219 L 17.597656 -40.953125 C 17.597656 -45.796875 19.988281 -48.25 24.707031 -48.25 L 34.457031 -48.25 C 39.359375 -48.25 41.8125 -45.921875 41.8125 -41.261719 Z M 24.890625 -62.78125 C 10.363281 -62.78125 3.066406 -55.484375 3.066406 -40.953125 L 3.066406 -21.765625 C 3.066406 -7.296875 10.300781 -0.0625 24.707031 -0.0625 L 41.507812 -0.0625 C 40.769531 3.25 38.441406 4.90625 34.457031 4.90625 L 29 4.90625 C 24.15625 4.90625 21.765625 7.296875 21.765625 12.078125 L 21.765625 12.199219 C 21.765625 16.984375 24.15625 19.375 29 19.375 L 34.515625 19.375 C 48.988281 19.375 56.222656 11.957031 56.222656 -2.820312 L 56.222656 -40.953125 C 56.222656 -55.484375 48.988281 -62.78125 34.457031 -62.78125 Z M 24.890625 -62.78125 "/></g></g></g></svg>