<svg xmlns="http://www.w3.org/2000/svg" xmlns:xlink="http://www.w3.org/1999/xlink" width="500" zoomAndPan="magnify" viewBox="0 0 375 374.999991" height="500" preserveAspectRatio="xMidYMid meet" version="1.0"><defs><g/><clipPath id="c3fc120f82"><path d="M 81.859375 85.640625 L 293.140625 85.640625 L 293.140625 296.921875 L 81.859375 296.921875 Z M 81.859375 85.640625 " clip-rule="nonzero"/></clipPath><clipPath id="b58ac00031"><path d="M 93.109375 85.640625 L 281.890625 85.640625 C 284.875 85.640625 287.738281 86.824219 289.847656 88.933594 C 291.957031 91.042969 293.140625 93.90625 293.140625 96.890625 L 293.140625 285.671875 C 293.140625 288.65625 291.957031 291.515625 289.847656 293.625 C 287.738281 295.738281 284.875 296.921875 281.890625 296.921875 L 93.109375 296.921875 C 90.125 296.921875 87.261719 295.738281 85.152344 293.625 C 83.042969 291.515625 81.859375 288.65625 81.859375 285.671875 L 81.859375 96.890625 C 81.859375 93.90625 83.042969 91.042969 85.152344 88.933594 C 87.261719 86.824219 90.125 85.640625 93.109375 85.640625 " clip-rule="nonzero"/></clipPath></defs><g clip-path="url(#c3fc120f82)"><g clip-path="url(#b58ac00031)"><path fill="#aee5d0" d="M 81.859375 85.640625 L 293.140625 85.640625 L 293.140625 296.921875 L 81.859375 296.921875 Z M 81.859375 85.640625 " fill-opacity="1" fill-rule="nonzero"/></g></g><g fill="#425c81" fill-opacity="1"><g transform="translate(136.404086, 234.010994)"><g><path d="M 72.078125 -24.941406 L 42.59375 -25.152344 C 34.453125 -25.152344 30.332031 -29.382812 30.332031 -37.835938 L 30.332031 -70.597656 C 30.332031 -78.949219 34.453125 -83.175781 42.59375 -83.175781 L 59.398438 -83.175781 C 67.851562 -83.175781 72.078125 -79.160156 72.078125 -71.128906 Z M 42.910156 -108.222656 C 17.859375 -108.222656 5.285156 -95.648438 5.285156 -70.597656 L 5.285156 -37.519531 C 5.285156 -12.578125 17.753906 -0.105469 42.59375 -0.105469 L 71.550781 -0.105469 C 70.28125 5.601562 66.265625 8.453125 59.398438 8.453125 L 49.992188 8.453125 C 41.640625 8.453125 37.519531 12.578125 37.519531 20.820312 L 37.519531 21.03125 C 37.519531 29.277344 41.640625 33.398438 49.992188 33.398438 L 59.503906 33.398438 C 84.445312 33.398438 96.914062 20.609375 96.914062 -4.863281 L 96.914062 -70.597656 C 96.914062 -95.648438 84.445312 -108.222656 59.398438 -108.222656 Z M 42.910156 -108.222656 "/></g></g></g></svg>