<svg xmlns="http://www.w3.org/2000/svg" xmlns:xlink="http://www.w3.org/1999/xlink" width="500" zoomAndPan="magnify" viewBox="0 0 375 374.999991" height="500" preserveAspectRatio="xMidYMid meet" version="1.0"><defs><g/><clipPath id="3672b4e5b2"><path d="M 231.730469 127.636719 L 367.460938 127.636719 L 367.460938 263.371094 L 231.730469 263.371094 Z M 231.730469 127.636719 " clip-rule="nonzero"/></clipPath><clipPath id="6823ad1dff"><path d="M 242.980469 127.636719 L 356.210938 127.636719 C 362.425781 127.636719 367.460938 132.671875 367.460938 138.886719 L 367.460938 252.121094 C 367.460938 258.332031 362.425781 263.371094 356.210938 263.371094 L 242.980469 263.371094 C 236.765625 263.371094 231.730469 258.332031 231.730469 252.121094 L 231.730469 138.886719 C 231.730469 132.671875 236.765625 127.636719 242.980469 127.636719 " clip-rule="nonzero"/></clipPath></defs><g fill="#aee5d0" fill-opacity="1"><g transform="translate(20.702562, 258.081253)"><g><path d="M 45.425781 0.0664062 C 48.175781 0.0351562 49.566406 -1.359375 49.566406 -4.039062 L 49.566406 -31.097656 C 49.566406 -33.847656 48.242188 -35.242188 45.5625 -35.242188 C 42.8125 -35.242188 41.421875 -33.847656 41.421875 -31.097656 L 41.421875 -8.148438 L 34.699219 -8.148438 C 31.949219 -8.148438 30.554688 -9.539062 30.554688 -12.324219 L 30.554688 -31.167969 C 30.554688 -33.917969 29.199219 -35.308594 26.480469 -35.308594 C 23.765625 -35.308594 22.40625 -33.949219 22.40625 -31.234375 L 22.476562 -8.148438 L 15.683594 -8.148438 C 12.933594 -8.148438 11.542969 -9.539062 11.542969 -12.324219 L 11.542969 -31.167969 C 11.542969 -33.917969 10.183594 -35.308594 7.46875 -35.308594 C 4.753906 -35.308594 3.394531 -33.949219 3.394531 -31.234375 L 3.394531 -12.492188 C 3.394531 -4.175781 7.46875 0 15.617188 0 Z M 45.425781 0.0664062 "/></g></g></g><g fill="#425c81" fill-opacity="1"><g transform="translate(78.877194, 258.081253)"><g><path d="M 33.203125 -4.074219 L 33.203125 -31.199219 C 33.203125 -33.882812 31.847656 -35.207031 29.128906 -35.207031 L 15.617188 -35.242188 C 7.46875 -35.242188 3.394531 -31.066406 3.394531 -22.746094 L 3.394531 -4.007812 C 3.394531 -1.289062 4.753906 0.0664062 7.46875 0.0664062 C 10.183594 0.0664062 11.542969 -1.324219 11.542969 -4.074219 L 11.578125 -10.863281 L 25.054688 -10.832031 L 25.054688 -4.074219 C 25.054688 -1.324219 26.449219 0.0664062 29.230469 0.0664062 C 31.878906 0.0664062 33.203125 -1.324219 33.203125 -4.074219 Z M 11.542969 -19.011719 L 11.542969 -22.917969 C 11.542969 -25.699219 12.933594 -27.09375 15.683594 -27.09375 L 25.054688 -27.09375 L 25.054688 -19.011719 Z M 11.542969 -19.011719 "/></g></g></g><g fill="#425c81" fill-opacity="1"><g transform="translate(120.826756, 258.081253)"><g><path d="M 30.554688 -31.199219 C 30.554688 -33.882812 29.199219 -35.242188 26.480469 -35.242188 L 15.617188 -35.242188 C 7.46875 -35.242188 3.429688 -31.675781 3.464844 -24.511719 C 3.464844 -17.179688 7.570312 -13.511719 15.753906 -13.546875 L 18.402344 -13.546875 C 21.082031 -13.511719 22.40625 -12.597656 22.40625 -10.796875 C 22.375 -8.964844 20.980469 -8.046875 18.300781 -8.046875 L 7.332031 -8.046875 C 4.71875 -8.011719 3.429688 -6.585938 3.394531 -3.769531 C 3.429688 -1.257812 4.753906 0 7.367188 -0.0351562 L 18.367188 0 C 26.414062 -0.0351562 30.453125 -3.632812 30.488281 -10.863281 C 30.523438 -17.960938 26.480469 -21.59375 18.367188 -21.726562 L 15.71875 -21.726562 C 12.933594 -21.726562 11.542969 -22.609375 11.542969 -24.34375 C 11.542969 -26.175781 12.933594 -27.09375 15.683594 -27.09375 L 26.582031 -27.09375 C 29.199219 -27.160156 30.523438 -28.519531 30.554688 -31.199219 Z M 30.554688 -31.199219 "/></g></g></g><g fill="#425c81" fill-opacity="1"><g transform="translate(160.026306, 258.081253)"><g><path d="M 15.683594 -4.140625 L 15.683594 -31.199219 C 15.683594 -33.882812 14.328125 -35.273438 11.609375 -35.308594 L 7.535156 -35.242188 C 4.820312 -35.207031 3.464844 -33.78125 3.464844 -31.03125 C 3.429688 -28.417969 4.785156 -27.09375 7.535156 -27.09375 L 7.535156 -4.140625 C 7.535156 -1.390625 8.894531 0 11.644531 0 C 14.328125 0 15.683594 -1.390625 15.683594 -4.140625 Z M 11.375 -46.140625 C 9.300781 -46.273438 7.230469 -44.273438 7.332031 -42.097656 C 7.265625 -40.027344 9.269531 -37.992188 11.375 -38.09375 C 13.476562 -37.992188 15.480469 -40.027344 15.414062 -42.097656 C 15.515625 -44.273438 13.445312 -46.273438 11.375 -46.140625 Z M 11.375 -46.140625 "/></g></g></g><g fill="#425c81" fill-opacity="1"><g transform="translate(184.355417, 258.081253)"><g><path d="M 3.394531 -42.097656 L 3.394531 -4.109375 C 3.394531 -1.425781 4.753906 -0.0351562 7.46875 0 L 11.542969 -0.0664062 C 14.257812 -0.101562 15.617188 -1.492188 15.617188 -4.242188 C 15.652344 -6.890625 14.292969 -8.214844 11.542969 -8.214844 L 11.542969 -42.097656 C 11.542969 -44.847656 10.152344 -46.242188 7.402344 -46.242188 C 4.71875 -46.242188 3.394531 -44.847656 3.394531 -42.097656 Z M 3.394531 -42.097656 "/></g></g></g><g fill="#425c81" fill-opacity="1"><g transform="translate(30.836864, 175.295702)"><g><path d="M 39.484375 -8.011719 L 39.484375 -41.011719 C 39.484375 -43.660156 38.195312 -44.984375 35.582031 -44.984375 C 32.898438 -44.984375 31.539062 -43.660156 31.539062 -41.046875 L 31.507812 -1.324219 C 31.507812 1.390625 30.148438 2.75 27.433594 2.75 L 13.917969 2.75 C 11.101562 2.75 9.710938 1.460938 9.710938 -1.121094 L 9.710938 -14.53125 C 9.675781 -17.246094 8.351562 -18.605469 5.738281 -18.640625 C 3.054688 -18.640625 1.730469 -17.246094 1.765625 -14.429688 L 1.765625 -1.222656 C 1.765625 6.789062 5.804688 10.796875 13.886719 10.796875 L 27.226562 10.796875 C 34.96875 10.796875 39.042969 7.199219 39.484375 0 L 48.007812 0 C 49.332031 0 50.007812 -1.324219 50.042969 -3.972656 C 50.042969 -6.65625 49.398438 -8.011719 48.109375 -8.011719 Z M 39.484375 -8.011719 "/></g></g></g><g fill="#425c81" fill-opacity="1"><g transform="translate(82.021034, 175.295702)"><g><path d="M 15.175781 -34.730469 C 13.714844 -34.730469 12.664062 -34.289062 12.019531 -33.40625 L 12.019531 -34.1875 C 12.019531 -36.871094 10.695312 -38.195312 8.046875 -38.195312 C 5.363281 -38.195312 4.039062 -36.871094 4.039062 -34.222656 L 4.039062 -8.011719 L -2.070312 -8.011719 C -3.394531 -8.011719 -4.074219 -6.6875 -4.074219 -4.039062 C -4.039062 -1.359375 -3.359375 0 -2.035156 0 L 45.800781 0 C 48.449219 0 49.773438 -1.359375 49.773438 -4.039062 L 49.773438 -22.476562 C 49.773438 -30.65625 45.765625 -34.730469 37.753906 -34.730469 Z M 37.683594 -26.753906 C 40.402344 -26.753906 41.757812 -25.359375 41.757812 -22.609375 L 41.757812 -8.011719 L 12.019531 -8.011719 L 12.019531 -26.753906 Z M 37.683594 -26.753906 "/></g></g></g><g fill="#425c81" fill-opacity="1"><g transform="translate(138.705226, 175.295702)"><g><path d="M 4.414062 -45.019531 C 1.730469 -44.949219 0.40625 -43.558594 0.40625 -40.84375 C 0.375 -38.261719 1.699219 -36.972656 4.414062 -36.972656 L 4.414062 -4.074219 C 4.414062 -1.359375 5.773438 0 8.488281 0 C 11.101562 0 12.425781 -1.359375 12.425781 -4.074219 L 12.425781 -41.046875 C 12.425781 -43.660156 11.101562 -45.019531 8.453125 -45.085938 Z M 4.414062 -45.019531 "/></g></g></g><g fill="#aee5d0" fill-opacity="1"><g transform="translate(160.511804, 175.295702)"><g><path d="M 23.15625 -8.011719 L 13.683594 -8.082031 C 11.066406 -8.082031 9.742188 -9.4375 9.742188 -12.15625 L 9.742188 -22.679688 C 9.742188 -25.359375 11.066406 -26.71875 13.683594 -26.71875 L 19.082031 -26.71875 C 21.796875 -26.71875 23.15625 -25.429688 23.15625 -22.847656 Z M 13.785156 -34.765625 C 5.738281 -34.765625 1.699219 -30.726562 1.699219 -22.679688 L 1.699219 -12.050781 C 1.699219 -4.039062 5.703125 -0.0351562 13.683594 -0.0351562 L 22.984375 -0.0351562 C 22.578125 1.800781 21.289062 2.714844 19.082031 2.714844 L 16.058594 2.714844 C 13.375 2.714844 12.050781 4.039062 12.050781 6.6875 L 12.050781 6.757812 C 12.050781 9.40625 13.375 10.726562 16.058594 10.726562 L 19.113281 10.726562 C 27.125 10.726562 31.132812 6.621094 31.132812 -1.5625 L 31.132812 -22.679688 C 31.132812 -30.726562 27.125 -34.765625 19.082031 -34.765625 Z M 13.785156 -34.765625 "/></g></g></g><g clip-path="url(#3672b4e5b2)"><g clip-path="url(#6823ad1dff)"><path fill="#aee5d0" d="M 231.730469 127.636719 L 367.460938 127.636719 L 367.460938 263.371094 L 231.730469 263.371094 Z M 231.730469 127.636719 " fill-opacity="1" fill-rule="nonzero"/></g></g><g fill="#425c81" fill-opacity="1"><g transform="translate(266.771016, 222.954092)"><g><path d="M 46.304688 -16.023438 L 27.363281 -16.160156 C 22.132812 -16.160156 19.484375 -18.875 19.484375 -24.308594 L 19.484375 -45.355469 C 19.484375 -50.71875 22.132812 -53.433594 27.363281 -53.433594 L 38.15625 -53.433594 C 43.589844 -53.433594 46.304688 -50.855469 46.304688 -45.695312 Z M 27.566406 -69.527344 C 11.472656 -69.527344 3.394531 -61.445312 3.394531 -45.355469 L 3.394531 -24.101562 C 3.394531 -8.078125 11.40625 -0.0664062 27.363281 -0.0664062 L 45.964844 -0.0664062 C 45.152344 3.597656 42.570312 5.433594 38.15625 5.433594 L 32.113281 5.433594 C 26.75 5.433594 24.101562 8.078125 24.101562 13.375 L 24.101562 13.511719 C 24.101562 18.808594 26.75 21.457031 32.113281 21.457031 L 38.226562 21.457031 C 54.25 21.457031 62.261719 13.238281 62.261719 -3.125 L 62.261719 -45.355469 C 62.261719 -61.445312 54.25 -69.527344 38.15625 -69.527344 Z M 27.566406 -69.527344 "/></g></g></g></svg>